<?xml version="1.0" encoding="utf-8"?>
<!-- Generator: Adobe Illustrator 21.0.0, SVG Export Plug-In . SVG Version: 6.00 Build 0)  -->
<svg version="1.1" id="Calque_1" xmlns="http://www.w3.org/2000/svg" xmlns:xlink="http://www.w3.org/1999/xlink" x="0px" y="0px"
	 viewBox="0 0 117 118" style="enable-background:new 0 0 117 118;" xml:space="preserve">
<style type="text/css">
	.st0{fill:none;stroke:#1D1D1B;stroke-miterlimit:10;}
</style>
<g>
	<path class="st0" d="M44.4,23.4c-0.5-1.5-1.8-3.4-3.5-3.6c-0.1,0-0.1,0-0.1,0c-1.9-2.7-4.4-4.1-8-3.1c-3.5,1-5.9,4.5-6.3,7.9
		c-0.9,8.2,10.1,15,16.1,8.4C44.9,30.5,45.6,26.5,44.4,23.4z M32.5,29.1c-0.1,0.2-0.2,0.4-0.1,0.6c-0.7-0.8-1.3-1.7-1.7-2.6
		C31.2,27.9,31.9,28.6,32.5,29.1z"/>
	<path class="st0" d="M107.4,73.5c-0.7-0.1-1.5,0-2.2,0.2c-2-0.9-4.5-0.8-6.3,0.4c-3.7,2.3-5.4,7.4-4.2,11.5
		c2,6.6,12.4,8.7,17.3,4.4C117.1,85.5,114.6,74,107.4,73.5z"/>
	<path class="st0" d="M28.1,55c2.6-4.6,4.4-10.4,2.2-15.4c-2.5-5.7-9.4-7.2-14.9-5.9C9.2,35.3,4.1,40.9,1.2,46.4
		c-0.4,0.8,0.1,1.5,0.8,1.6c2.9,2.8,5.9,5.6,9,8.1c2.3,1.9,5.4,4.6,8.4,5.3c0.1,0.7,0.6,1.3,1.5,1.2C24.5,62.3,26.6,57.7,28.1,55z
		 M27.4,45.2c-0.2-0.2-0.5-0.3-0.8-0.3c0-0.3-0.1-0.6-0.1-1c0.1-1,0-2.1-0.3-3.2c0.3,0.5,0.6,1,0.8,1.6
		C27.3,43.3,27.4,44.2,27.4,45.2z"/>
	<path class="st0" d="M93.4,93.8c-7.2-6.5-17.5,0.3-22.2,6.3c-0.7,0.9,0.2,2.3,1.2,2.1c-0.2,0.4-0.4,0.7-0.4,1.3
		c0,0.5,0.9,0.6,0.9,0c0,0,0-0.1-0.1-0.1c0.2,0.2,0.4,0.3,0.6,0.5c3.6,2,6.5,5.4,9.6,8.2c1.8,1.7,5.4,5.9,8.2,4.6
		c0.2-0.1,0.4-0.3,0.6-0.4c0.1-0.1,0.3-0.1,0.4-0.3C98.4,110.9,99.5,99.3,93.4,93.8z M92.5,98.5c-0.3,0-0.5,0.1-0.8,0.2
		c-0.1-0.1-0.1-0.3-0.2-0.4c0-0.2-0.1-0.5-0.2-0.7c-0.1-0.2-0.2-0.4-0.4-0.6c0-0.1,0-0.1,0-0.2C91.6,97.3,92.1,97.9,92.5,98.5z
		 M88.7,95.6c-1.7-0.1-3.2-0.1-4.7,0.2c-0.6,0-1.2,0-1.8,0C84.3,95.1,86.6,94.8,88.7,95.6z"/>
	<path class="st0" d="M79.5,1.6c-0.6,0.1-1.1,0.4-1.4,0.8c-9.3,0.2-16,13.4-13.8,23.5c0.4,1.8,1,3.5,1.7,5.1
		c-0.2,0.1-0.4,0.1-0.6,0.2c-3.7,1-7.4,2-11.3,2.1c-2,0-2.3,2.5-1.1,3.6c6.4,6.5,14.9,10.8,23.3,7.7c7.7,6.2,17.8,9.4,27.1,6.8
		C134,42.8,101.6-1.4,79.5,1.6z M69.8,13.1c0.9-2,2.2-3.6,3.7-4.7c-1.4,1.2-2.6,2.7-3.5,4.7C69.9,13.1,69.8,13.1,69.8,13.1z
		 M111.2,34.1c0-1.5-0.1-2.9-0.4-4.4c0.5,1.6,0.9,3.2,0.9,4.8C111.6,34.3,111.4,34.1,111.2,34.1z"/>
</g>
</svg>
